<svg  viewBox="0 0 116 117" fill="none" xmlns="http://www.w3.org/2000/svg">
<g id="mill">
<path id="grass" d="M110.7 110.2H10.4V114H110.7V110.2Z" fill="#8BB32F"/>
<path id="ground" d="M110.7 114H10.4V116.6H110.7V114Z" fill="#6A4F3B"/>
<g id="clouds2">
<path id="Vector" d="M106.3 40.4999C106.4 39.1999 105.9 37.9999 104.9 37.2999C104.2 36.7999 103.4 36.6999 102.5 36.6999C102.2 34.8999 100.5 33.4999 98.6 33.4999C96.6 33.4999 95 34.8999 94.7 36.6999C93.8 36.5999 93 36.7999 92.3 37.2999C91.3 37.9999 90.8 39.1999 90.9 40.4999C89.6 40.9999 88.6 41.9999 88.6 43.0999V43.2999C88.6 44.8999 90.6 46.1999 93 46.1999H104.1C106.5 46.1999 108.5 44.8999 108.5 43.2999V42.9999C108.5 41.9999 107.6 40.9999 106.3 40.4999Z" fill="#8BAFBB"/>
<path id="Vector_2" d="M114.1 38.0999C114.2 36.9999 113.8 35.9999 112.9 35.3999C112.3 34.9999 111.6 34.7999 110.9 34.8999C110.6 33.3999 109.2 32.1999 107.5 32.1999C105.8 32.1999 104.4 33.3999 104.1 34.8999C103.4 34.7999 102.7 34.9999 102.1 35.3999C101.2 35.9999 100.8 36.9999 100.9 38.0999C99.7 38.4999 99 39.2999 99 40.2999V40.4999C99 41.8999 100.7 42.9999 102.7 42.9999H112.2C114.3 42.9999 115.9 41.8999 115.9 40.4999V40.2999C116 39.2999 115.2 38.4999 114.1 38.0999Z" fill="#D1DFE4"/>
</g>
<g id="clouds1">
<path id="Vector_3" d="M17.7 27.3999C17.8 26.0999 17.3 24.8999 16.3 24.1999C15.6 23.6999 14.8 23.4999 13.9 23.5999C13.6 21.7999 11.9 20.3999 10 20.3999C8 20.3999 6.4 21.7999 6.1 23.5999C5.2 23.4999 4.4 23.6999 3.7 24.1999C2.7 24.8999 2.2 26.0999 2.3 27.3999C1 27.8999 0 28.8999 0 29.9999V30.2999C0 31.8999 2 33.1999 4.4 33.1999H15.5C17.9 33.1999 19.9 31.8999 19.9 30.2999V29.9999C19.9 28.8999 19 27.8999 17.7 27.3999Z" fill="#8BAFBB"/>
<path id="Vector_4" d="M25.5 24.9999C25.6 23.8999 25.2 22.8999 24.3 22.2999C23.7 21.8999 23 21.6999 22.3 21.7999C22 20.2999 20.6 19.0999 18.9 19.0999C17.2 19.0999 15.8 20.2999 15.5 21.7999C14.8 21.6999 14.1 21.8999 13.5 22.2999C12.6 22.8999 12.2 23.8999 12.3 24.9999C11.1 25.3999 10.4 26.1999 10.4 27.1999V27.3999C10.4 28.7999 12.1 29.8999 14.1 29.8999H23.6C25.7 29.8999 27.3 28.7999 27.3 27.3999V27.1999C27.4 26.1999 26.6 25.3999 25.5 24.9999Z" fill="#D1DFE4"/>
</g>
<g id="mill_body">
<g id="Group">
<path id="Vector_5" d="M49.7 37.7L59.7 29.3L69.7 37.7L75.3 48.7L75.5 51.2H79.3L77.5 47.6L71.9 36.5L71.7 36.1L71.3 35.8L61.3 27.4L59.7 26L58.1 27.4L48.1 35.8L47.7 36.1L47.5 36.5L41.9 47.6L40.1 51.2H43.9L44.1 48.7L49.7 37.7Z" fill="#7D402C"/>
<path id="Vector_6" d="M79.4 94.7L78.6 85.8L77.8 76.9L76.8 66.2L76 57.2L75.5 51.2L75.3 48.7L69.7 37.7L59.7 29.3L49.7 37.7L44.1 48.7L43.9 51.2L43.4 57.2L42.6 66.2L41.6 76.9L40.8 85.8L40 94.7L38.6 110.6H59.7H80.8L79.4 94.7Z" fill="#CC784D"/>
</g>
<g id="Group_2">
<g id="Group_3">
<g id="Group_4">
<path id="Vector_7" d="M49 67.5H41.6V76.4H49V67.5Z" fill="#CC784D"/>
<path id="Vector_8" d="M49.4 76.9H41.2V67.1H49.4V76.9ZM42 76.1H48.6V68H42V76.1Z" fill="#7D402C"/>
</g>
<g id="Group_5">
<path id="Vector_9" d="M50.2 67.1H40.4V67.9H50.2V67.1Z" fill="#7D402C"/>
</g>
<g id="Group_6">
<path id="Vector_10" d="M50.2 76.1H40.4V76.9H50.2V76.1Z" fill="#7D402C"/>
</g>
<g id="Group_7">
<path id="Vector_11" d="M49.0954 75.8712L42.2849 67.6183L41.6678 68.1275L48.4784 76.3804L49.0954 75.8712Z" fill="#7D402C"/>
</g>
<g id="Group_8">
<path id="Vector_12" d="M48.4312 67.6527L41.6206 75.9056L42.2376 76.4148L49.0482 68.1619L48.4312 67.6527Z" fill="#7D402C"/>
</g>
</g>
<g id="Group_9">
<g id="Group_10">
<path id="Vector_13" d="M56.3 67.5H48.9V76.4H56.3V67.5Z" fill="#CC784D"/>
<path id="Vector_14" d="M56.8 76.9H48.6V67.1H56.8V76.9ZM49.4 76.1H56V68H49.4V76.1Z" fill="#7D402C"/>
</g>
<g id="Group_11">
<path id="Vector_15" d="M57.6 67.1H47.8V67.9H57.6V67.1Z" fill="#7D402C"/>
</g>
<g id="Group_12">
<path id="Vector_16" d="M57.6 76.1H47.8V76.9H57.6V76.1Z" fill="#7D402C"/>
</g>
<g id="Group_13">
<path id="Vector_17" d="M56.4774 75.8984L49.6679 67.6454L49.0509 68.1546L55.8603 76.4075L56.4774 75.8984Z" fill="#7D402C"/>
</g>
<g id="Group_14">
<path id="Vector_18" d="M55.8142 67.6049L49.0048 75.8589L49.6219 76.368L56.4314 68.114L55.8142 67.6049Z" fill="#7D402C"/>
</g>
</g>
<g id="Group_15">
<g id="Group_16">
<path id="Vector_19" d="M63.7 67.5H56.3V76.4H63.7V67.5Z" fill="#CC784D"/>
<path id="Vector_20" d="M64.2 76.9H56V67.1H64.2V76.9ZM56.7 76.1H63.3V68H56.7V76.1Z" fill="#7D402C"/>
</g>
<g id="Group_17">
<path id="Vector_21" d="M65 67.1H55.2V67.9H65V67.1Z" fill="#7D402C"/>
</g>
<g id="Group_18">
<path id="Vector_22" d="M65 76.1H55.2V76.9H65V76.1Z" fill="#7D402C"/>
</g>
<g id="Group_19">
<path id="Vector_23" d="M63.8763 75.9096L57.0657 67.6567L56.4487 68.1659L63.2592 76.4188L63.8763 75.9096Z" fill="#7D402C"/>
</g>
<g id="Group_20">
<path id="Vector_24" d="M63.2136 67.6136L56.4031 75.8665L57.0201 76.3757L63.8307 68.1228L63.2136 67.6136Z" fill="#7D402C"/>
</g>
</g>
<g id="Group_21">
<g id="Group_22">
<path id="Vector_25" d="M71.1 67.5H63.7V76.4H71.1V67.5Z" fill="#CC784D"/>
<path id="Vector_26" d="M71.5 76.9H63.3V67.1H71.5V76.9ZM64.1 76.1H70.7V68H64.1V76.1V76.1Z" fill="#7D402C"/>
</g>
<g id="Group_23">
<path id="Vector_27" d="M72.3 67.1H62.5V67.9H72.3V67.1Z" fill="#7D402C"/>
</g>
<g id="Group_24">
<path id="Vector_28" d="M72.3 76.1H62.5V76.9H72.3V76.1Z" fill="#7D402C"/>
</g>
<g id="Group_25">
<path id="Vector_29" d="M71.1964 75.8695L64.3859 67.6166L63.7688 68.1258L70.5794 76.3787L71.1964 75.8695Z" fill="#7D402C"/>
</g>
<g id="Group_26">
<path id="Vector_30" d="M70.5332 67.6552L63.7227 75.9081L64.3397 76.4173L71.1502 68.1644L70.5332 67.6552Z" fill="#7D402C"/>
</g>
</g>
<g id="Group_27">
<g id="Group_28">
<path id="Vector_31" d="M77.8 67.5H70.4V76.4H77.8V67.5Z" fill="#CC784D"/>
<path id="Vector_32" d="M78.2 76.9H70V67.1H78.2V76.9ZM70.8 76.1H77.4V68H70.8V76.1Z" fill="#7D402C"/>
</g>
<g id="Group_29">
<path id="Vector_33" d="M79 67.1H69.2V67.9H79V67.1Z" fill="#7D402C"/>
</g>
<g id="Group_30">
<path id="Vector_34" d="M79 76.1H69.2V76.9H79V76.1Z" fill="#7D402C"/>
</g>
<g id="Group_31">
<path id="Vector_35" d="M77.9003 75.8447L71.0908 67.5918L70.4738 68.1009L77.2833 76.3538L77.9003 75.8447Z" fill="#7D402C"/>
</g>
<g id="Group_32">
<path id="Vector_36" d="M77.239 67.656L70.4295 75.91L71.0466 76.4191L77.8561 68.1651L77.239 67.656Z" fill="#7D402C"/>
</g>
</g>
</g>
<g id="Group_33">
<g id="Group_34">
<path id="Vector_37" d="M63.6 55.7H56.8V64H63.6V55.7Z" fill="#995A3A"/>
<path id="Vector_38" d="M64 64.3H56.4V55.3H64V64.3ZM57.2 63.5H63.3V56H57.2V63.5Z" fill="#7D402C"/>
</g>
<g id="Group_35">
<path id="Vector_39" d="M64.7 63.5H55.7V64.3H64.7V63.5Z" fill="#7D402C"/>
</g>
</g>
<g id="Group_36">
<g id="Group_37">
<path id="Vector_40" d="M54.3 89.9V110.6H66.1V89.9H54.3V89.9ZM64.9 108.8H55.5V91.6H64.9V108.8Z" fill="#7D402C"/>
<path id="Vector_41" d="M64.9 91H55.5V108.9H64.9V91Z" fill="#995A3A"/>
</g>
<g id="Group_38">
<path id="Vector_42" d="M67.1 108.9H53.2V110.6H67.1V108.9Z" fill="#7D402C"/>
</g>
</g>
<g id="blades">
<g id="Group_39">
<path id="Vector_43" d="M66.7891 45.1598L66.7797 43.7599L59.58 43.808L59.5893 45.2079L66.7891 45.1598Z" fill="#944C34"/>
</g>
<g id="Group_40">
<g id="Group_41">
<path id="Vector_44" d="M92.3245 44.4183L92.289 38.6201L85.009 39.1596L85.041 44.3921L92.3245 44.4183Z" fill="#EFD4C6"/>
<path id="Vector_45" d="M84.6896 44.7478L84.6533 38.8082L92.6396 38.123L92.6793 44.6282L84.6896 44.7478ZM85.3647 39.511L85.3933 44.1778L92.0399 44.1372L92.0088 39.0461L85.3647 39.511Z" fill="#944C34"/>
</g>
<g id="Group_42">
<path id="Vector_46" d="M85.041 44.3921L85.009 39.1596L77.7289 39.6991L77.7583 44.5073L85.041 44.3921Z" fill="#EFD4C6"/>
<path id="Vector_47" d="M77.407 44.863L77.3741 39.4891L85.3604 38.8039L85.3967 44.7435L77.407 44.863ZM78.0847 40.0505L78.1097 44.1516L84.7564 44.111L84.7287 39.5856L78.0847 40.0505Z" fill="#944C34"/>
</g>
<g id="Group_43">
<path id="Vector_48" d="M96.4256 44.3932L96.4587 38.241L92.289 38.6201L92.3245 44.4183L96.4256 44.3932Z" fill="#EFD4C6"/>
<path id="Vector_49" d="M91.9731 44.774L91.9333 38.2687L96.6687 37.8862L96.7102 44.6743L91.9731 44.774ZM92.715 38.9003L92.7462 43.9914L96.1402 43.9707L96.1074 38.5967L92.715 38.9003Z" fill="#944C34"/>
</g>
<g id="Group_44">
<path id="Vector_50" d="M85.041 44.3921L85.0739 49.766L92.36 50.2164L92.3245 44.4183L85.041 44.3921Z" fill="#EFD4C6"/>
<path id="Vector_51" d="M84.7928 50.0506L84.7564 44.111L92.6759 44.0625L92.7157 50.5678L84.7928 50.0506ZM85.3967 44.7435L85.4253 49.4103L92.0043 49.865L91.9731 44.774L85.3967 44.7435Z" fill="#944C34"/>
</g>
<g id="Group_45">
<path id="Vector_52" d="M92.3599 50.2164L96.4628 50.4742L96.4256 44.3932L92.3245 44.4182L92.3599 50.2164Z" fill="#EFD4C6"/>
<path id="Vector_53" d="M92.0788 50.501L92.0391 43.9957L96.8473 43.9663L96.8888 50.7544L92.0788 50.501ZM92.6802 44.7696L92.7113 49.8607L96.1774 50.0516L96.1445 44.6777L92.6802 44.7696Z" fill="#944C34"/>
</g>
<g id="Group_46">
<path id="Vector_54" d="M85.041 44.3921L77.7584 44.5073L77.7869 49.1741L85.0739 49.766L85.041 44.3921Z" fill="#EFD4C6"/>
<path id="Vector_55" d="M77.4355 49.5298L77.4027 44.1559L85.3221 44.1075L85.3585 50.0471L77.4355 49.5298ZM78.1141 44.8587L78.1392 48.9599L84.7182 49.4146L84.6896 44.7478L78.1141 44.8587Z" fill="#944C34"/>
</g>
<g id="Group_47">
<path id="Vector_56" d="M70.4046 44.5523L70.5008 48.7237L77.7869 49.1742L77.7584 44.5073L70.4046 44.5523Z" fill="#EFD4C6"/>
<path id="Vector_57" d="M70.1494 49.0794L70.12 44.2712L78.0395 44.2228L78.0723 49.5967L70.1494 49.0794ZM70.7603 44.9037L70.7819 48.4392L77.3609 48.8939L77.3367 44.9342L70.7603 44.9037Z" fill="#944C34"/>
</g>
<g id="Group_48">
<path id="Vector_58" d="M77.7584 44.5073L77.729 39.6991L70.4498 40.38L70.4046 44.5523L77.7584 44.5073Z" fill="#EFD4C6"/>
<path id="Vector_59" d="M70.1235 44.8368L70.0941 40.0286L78.0804 39.3434L78.1132 44.7173L70.1235 44.8368ZM70.7344 40.6611L70.756 44.1966L77.4027 44.1559L77.3784 40.1962L70.7344 40.6611Z" fill="#944C34"/>
</g>
<g id="Group_49">
<path id="Vector_60" d="M66.7277 44.5748L66.7519 48.5345L70.5008 48.7237L70.4046 44.5523L66.7277 44.5748Z" fill="#EFD4C6"/>
<path id="Vector_61" d="M66.4709 48.8191L66.4432 44.2937L70.8272 44.2669L70.8574 49.2165L66.4709 48.8191ZM67.0835 44.9262L67.1033 48.1788L70.1451 48.3723L70.1235 44.8369L67.0835 44.9262Z" fill="#944C34"/>
</g>
<g id="Group_50">
<path id="Vector_62" d="M70.4498 40.38L66.7035 40.615L66.7277 44.5748L70.4046 44.5523L70.4498 40.38Z" fill="#EFD4C6"/>
<path id="Vector_63" d="M66.3763 44.9305L66.3486 40.4051L70.7309 40.0954L70.7612 45.0451L66.3763 44.9305ZM67.0592 40.9664L67.0791 44.2191L70.0489 44.2009L70.0273 40.6654L67.0592 40.9664Z" fill="#944C34"/>
</g>
</g>
<g id="Group_51">
<path id="Vector_64" d="M59.5924 45.1669L59.583 43.7669L52.3832 43.815L52.3926 45.215L59.5924 45.1669Z" fill="#944C34"/>
</g>
<g id="Group_52">
<path id="Vector_65" d="M59.5726 52.3315L60.9725 52.3234L60.9305 45.1236L59.5306 45.1317L59.5726 52.3315Z" fill="#944C34"/>
</g>
<g id="Group_53">
<path id="Vector_66" d="M59.5655 45.2092L60.9655 45.201L60.9235 38.0012L59.5235 38.0094L59.5655 45.2092Z" fill="#944C34"/>
</g>
<g id="Group_54">
<g id="Group_55">
<path id="Vector_67" d="M59.8839 12.372L65.7532 12.4068L65.2316 19.6226L59.9992 19.6546L59.8839 12.372Z" fill="#EFD4C6"/>
<path id="Vector_68" d="M59.6478 20.0103L59.5994 12.0909L66.1046 12.0511L65.5171 20.0451L59.6478 20.0103ZM60.2396 12.7233L60.2803 19.37L64.9471 19.3415L65.4018 12.7625L60.2396 12.7233Z" fill="#944C34"/>
</g>
<g id="Group_56">
<path id="Vector_69" d="M59.9992 19.6546L65.2317 19.6226L64.7812 26.9087L60.0441 27.0084L59.9992 19.6546Z" fill="#EFD4C6"/>
<path id="Vector_70" d="M59.6927 27.3641L59.6443 19.4446L65.5839 19.4083L64.9964 27.4023L59.6927 27.3641ZM60.3549 20.006L60.3955 26.6526L64.4967 26.6276L64.9514 20.0486L60.3549 20.006Z" fill="#944C34"/>
</g>
<g id="Group_57">
<path id="Vector_71" d="M59.8588 8.27083L66.0812 8.23278L65.7532 12.4068L59.8839 12.372L59.8588 8.27083Z" fill="#EFD4C6"/>
<path id="Vector_72" d="M59.5325 12.7277L59.5031 7.91944L66.2912 7.87793L65.9666 12.6176L59.5325 12.7277ZM60.2145 8.62221L60.2353 12.0163L65.3264 11.9851L65.6587 8.51821L60.2145 8.62221Z" fill="#944C34"/>
</g>
<g id="Group_58">
<path id="Vector_73" d="M59.9992 19.6546L54.6964 19.7577L54.0857 12.4074L59.8839 12.372L59.9992 19.6546Z" fill="#EFD4C6"/>
<path id="Vector_74" d="M53.73 12.056L60.2353 12.0162L60.2837 19.9357L54.3441 19.972L53.73 12.056ZM59.5325 12.7277L54.4414 12.7588L54.9766 19.3317L59.6434 19.3032L59.5325 12.7277Z" fill="#944C34"/>
</g>
<g id="Group_59">
<path id="Vector_75" d="M54.0857 12.4074L53.7778 8.308L59.8588 8.27081L59.8839 12.372L54.0857 12.4074Z" fill="#EFD4C6"/>
<path id="Vector_76" d="M53.4221 7.95661L60.2102 7.9151L60.2396 12.7233L53.7344 12.7631L53.4221 7.95661ZM59.5777 8.55538L54.2038 8.58824L54.4371 12.0517L59.5282 12.0206L59.5777 8.55538Z" fill="#944C34"/>
</g>
<g id="Group_60">
<path id="Vector_77" d="M59.9991 19.6546L60.0441 27.0084L55.3061 26.9666L54.6964 19.7577L59.9991 19.6546Z" fill="#EFD4C6"/>
<path id="Vector_78" d="M54.3407 19.4064L60.2803 19.37L60.3287 27.2895L54.9548 27.3223L54.3407 19.4064ZM59.6478 20.0103L55.1224 20.038L55.6575 26.6109L59.7587 26.5858L59.6478 20.0103Z" fill="#944C34"/>
</g>
<g id="Group_61">
<path id="Vector_79" d="M60.018 34.2919L55.9168 34.3169L55.3062 26.9666L60.0441 27.0084L60.018 34.2919Z" fill="#EFD4C6"/>
<path id="Vector_80" d="M54.8802 26.6864L60.2541 26.6535L60.3025 34.573L55.4943 34.6024L54.8802 26.6864ZM59.6928 27.3641L55.733 27.3883L56.2682 33.9612L59.8037 33.9396L59.6928 27.3641Z" fill="#944C34"/>
</g>
<g id="Group_62">
<path id="Vector_81" d="M60.0441 27.0084L64.7812 26.9087L64.2605 34.2659L60.0179 34.2919L60.0441 27.0084Z" fill="#EFD4C6"/>
<path id="Vector_82" d="M59.7368 34.5764L59.6884 26.657L65.0623 26.6241L64.4748 34.6182L59.7368 34.5764ZM60.3998 27.3598L60.4405 34.0064L63.976 33.9848L64.4307 27.4058L60.3998 27.3598Z" fill="#944C34"/>
</g>
<g id="Group_63">
<path id="Vector_83" d="M60.1116 38.039L56.1518 38.0632L55.9168 34.3169L60.0179 34.2918L60.1116 38.039Z" fill="#EFD4C6"/>
<path id="Vector_84" d="M55.5611 33.9655L60.5108 33.9353L60.5376 38.3193L56.0122 38.3469L55.5611 33.9655ZM59.7369 34.5764L56.2014 34.598L56.4321 37.6372L59.6847 37.6174L59.7369 34.5764Z" fill="#944C34"/>
</g>
<g id="Group_64">
<path id="Vector_85" d="M64.2605 34.2659L64.0001 37.9445L60.1115 38.039L60.0179 34.2918L64.2605 34.2659Z" fill="#EFD4C6"/>
<path id="Vector_86" d="M59.7602 38.3947L59.7334 34.0107L64.683 33.9805L64.427 38.3662L59.7602 38.3947ZM60.3736 34.6432L60.3918 37.613L63.6444 37.5931L63.838 34.5513L60.3736 34.6432Z" fill="#944C34"/>
</g>
</g>
<g id="Group_65">
<g id="Group_66">
<path id="Vector_87" d="M26.8477 44.8186L26.7411 38.9502L34.0983 39.4709L34.06 44.7745L26.8477 44.8186Z" fill="#EFD4C6"/>
<path id="Vector_88" d="M26.4963 45.1744L26.4565 38.6691L34.4505 39.2566L34.4869 45.1962L26.4963 45.1744ZM27.0968 39.3016L27.1279 44.3927L33.7746 44.352L33.746 39.6852L27.0968 39.3016Z" fill="#944C34"/>
</g>
<g id="Group_67">
<path id="Vector_89" d="M34.0601 44.7745L34.0983 39.4709L41.3142 39.9925L41.4138 44.7296L34.0601 44.7745Z" fill="#EFD4C6"/>
<path id="Vector_90" d="M33.7789 45.0591L33.7426 39.1195L41.7367 39.707L41.7695 45.0809L33.7789 45.0591ZM34.3838 39.8934L34.4114 44.4188L41.0581 44.3782L41.033 40.277L34.3838 39.8934Z" fill="#944C34"/>
</g>
<g id="Group_68">
<path id="Vector_91" d="M22.6754 44.7734L22.6382 38.6924L26.741 38.9502L26.8476 44.8186L22.6754 44.7734Z" fill="#EFD4C6"/>
<path id="Vector_92" d="M22.324 45.1291L22.2825 38.341L27.0222 38.6656L27.0619 45.1709L22.324 45.1291ZM22.9939 39.0438L23.0268 44.4177L26.4208 44.397L26.3897 39.3059L22.9939 39.0438Z" fill="#944C34"/>
</g>
<g id="Group_69">
<path id="Vector_93" d="M34.0601 44.7745L34.092 50.007L26.8832 50.6168L26.8477 44.8186L34.0601 44.7745Z" fill="#EFD4C6"/>
<path id="Vector_94" d="M26.5318 50.9725L26.492 44.4672L34.4114 44.4188L34.4477 50.3584L26.5318 50.9725ZM27.1323 45.0997L27.1634 50.1908L33.7363 49.6556L33.7789 45.0591L27.1323 45.0997Z" fill="#944C34"/>
</g>
<g id="Group_70">
<path id="Vector_95" d="M26.8831 50.6168L22.7135 50.9959L22.6754 44.7734L26.8477 44.8186L26.8831 50.6168Z" fill="#EFD4C6"/>
<path id="Vector_96" d="M22.3621 51.3516L22.3205 44.5635L27.1288 44.5341L27.1686 51.0393L22.3621 51.3516ZM23.0311 45.1248L23.064 50.4987L26.5274 50.2654L26.4963 45.1743L23.0311 45.1248Z" fill="#944C34"/>
</g>
<g id="Group_71">
<path id="Vector_97" d="M34.0601 44.7745L41.4138 44.7296L41.4424 49.3964L34.0921 50.007L34.0601 44.7745Z" fill="#EFD4C6"/>
<path id="Vector_98" d="M33.8118 50.433L33.7755 44.4934L41.6949 44.445L41.7278 49.8189L33.8118 50.433ZM34.4158 45.1259L34.4434 49.6513L41.0164 49.1161L40.9913 45.015L34.4158 45.1259Z" fill="#944C34"/>
</g>
<g id="Group_72">
<path id="Vector_99" d="M48.6964 44.6143L48.7224 48.8569L41.4423 49.3964L41.4138 44.7296L48.6964 44.6143Z" fill="#EFD4C6"/>
<path id="Vector_100" d="M41.091 49.7521L41.0581 44.3782L48.9775 44.3297L49.0069 49.138L41.091 49.7521ZM41.7695 45.0809L41.7937 49.0407L48.3667 48.5055L48.345 44.97L41.7695 45.0809Z" fill="#944C34"/>
</g>
<g id="Group_73">
<path id="Vector_101" d="M41.4138 44.7296L41.3141 39.9925L48.6714 40.5132L48.6965 44.6143L41.4138 44.7296Z" fill="#EFD4C6"/>
<path id="Vector_102" d="M41.0624 45.0853L41.0296 39.7114L49.0236 40.2989L49.053 45.1071L41.0624 45.0853ZM41.6698 40.3439L41.694 44.3036L48.3407 44.2629L48.3191 40.7275L41.6698 40.3439Z" fill="#944C34"/>
</g>
<g id="Group_74">
<path id="Vector_103" d="M52.4445 44.6621L52.3976 48.5515L48.7224 48.8569L48.6965 44.6143L52.4445 44.6621Z" fill="#EFD4C6"/>
<path id="Vector_104" d="M48.371 49.2126L48.3408 44.2629L52.7247 44.2361L52.7524 48.7615L48.371 49.2126ZM49.0522 44.9657L49.0738 48.5012L52.113 48.2704L52.0931 45.0178L49.0522 44.9657Z" fill="#944C34"/>
</g>
<g id="Group_75">
<path id="Vector_105" d="M48.6714 40.5132L52.4202 40.7024L52.4445 44.6621L48.6964 44.6143L48.6714 40.5132Z" fill="#EFD4C6"/>
<path id="Vector_106" d="M48.3451 44.97L48.3148 40.0204L52.7005 40.2764L52.7282 44.8018L48.3451 44.97ZM49.0271 40.8646L49.0487 44.4L52.0185 44.3819L51.9986 41.1292L49.0271 40.8646Z" fill="#944C34"/>
</g>
</g>
<g id="Group_76">
<g id="Group_77">
<path id="Vector_107" d="M60.3554 77.9191L66.1536 77.8836L65.6141 70.6036L60.2402 70.6365L60.3554 77.9191Z" fill="#EFD4C6"/>
<path id="Vector_108" d="M60.004 78.2748L59.9556 70.3554L65.8952 70.319L66.5804 78.3053L60.004 78.2748ZM60.5959 70.9879L60.6365 77.6345L65.7276 77.6034L65.1924 71.0305L60.5959 70.9879Z" fill="#944C34"/>
</g>
<g id="Group_78">
<path id="Vector_109" d="M60.2402 70.6365L65.6141 70.6036L64.9332 63.3244L60.2664 63.353L60.2402 70.6365Z" fill="#EFD4C6"/>
<path id="Vector_110" d="M59.9591 70.921L59.9107 63.0016L65.2846 62.9687L65.9698 70.955L59.9591 70.921ZM60.6221 63.7043L60.6627 70.351L65.1881 70.3234L64.6529 63.7504L60.6221 63.7043Z" fill="#944C34"/>
</g>
<g id="Group_79">
<path id="Vector_111" d="M60.3805 82.0202L66.4615 81.983L66.1536 77.8836L60.3555 77.9191L60.3805 82.0202Z" fill="#EFD4C6"/>
<path id="Vector_112" d="M60.0291 82.3759L59.9997 77.5677L66.505 77.5279L66.8875 82.2633L60.0291 82.3759ZM60.7112 78.2705L60.7319 81.6645L66.1058 81.6316L65.8725 78.1682L60.7112 78.2705Z" fill="#944C34"/>
</g>
<g id="Group_80">
<path id="Vector_113" d="M60.2402 70.6365L55.0077 70.6685L54.5573 77.9546L60.3555 77.9191L60.2402 70.6365Z" fill="#EFD4C6"/>
<path id="Vector_114" d="M54.2059 78.3102L54.7934 70.3162L60.733 70.2799L60.7814 78.1993L54.2059 78.3102ZM55.3634 71.0198L54.9087 77.5988L59.9997 77.5677L59.9591 70.921L55.3634 71.0198Z" fill="#944C34"/>
</g>
<g id="Group_81">
<path id="Vector_115" d="M54.5573 77.9545L54.2293 82.1286L60.3805 82.0202L60.3555 77.9191L54.5573 77.9545Z" fill="#EFD4C6"/>
<path id="Vector_116" d="M53.8779 82.4843L54.2024 77.7446L60.7077 77.7048L60.7371 82.513L53.8779 82.4843ZM54.8427 78.3771L54.6518 81.8431L60.0257 81.8102L60.0049 78.4162L54.8427 78.3771Z" fill="#944C34"/>
</g>
<g id="Group_82">
<path id="Vector_117" d="M60.2402 70.6364L60.2663 63.3529L55.5284 63.3112L55.0077 70.6684L60.2402 70.6364Z" fill="#EFD4C6"/>
<path id="Vector_118" d="M54.6563 71.0242L55.2438 63.0301L60.6178 62.9972L60.6662 70.9167L54.6563 71.0242ZM55.8138 63.7337L55.3591 70.3127L59.8845 70.2851L59.8439 63.6384L55.8138 63.7337Z" fill="#944C34"/>
</g>
<g id="Group_83">
<path id="Vector_119" d="M60.2214 55.9992L56.05 56.0954L55.5284 63.3112L60.2664 63.353L60.2214 55.9992Z" fill="#EFD4C6"/>
<path id="Vector_120" d="M55.1771 63.6669L55.7646 55.6729L60.5728 55.6435L60.6212 63.5629L55.1771 63.6669ZM56.3346 56.3765L55.8798 62.9555L59.8395 62.9313L59.7989 56.2846L56.3346 56.3765Z" fill="#944C34"/>
</g>
<g id="Group_84">
<path id="Vector_121" d="M60.2664 63.3529L64.9332 63.3244L64.3937 56.0444L60.2214 55.9992L60.2664 63.3529Z" fill="#EFD4C6"/>
<path id="Vector_122" d="M59.915 63.7087L59.8666 55.7892L64.6748 55.7598L65.3601 63.7461L59.915 63.7087ZM60.5771 56.3506L60.6178 62.9972L64.5775 62.973L64.0423 56.4001L60.5771 56.3506Z" fill="#944C34"/>
</g>
<g id="Group_85">
<path id="Vector_123" d="M60.1989 52.3223L56.2392 52.3465L56.0499 56.0954L60.2214 55.9992L60.1989 52.3223Z" fill="#EFD4C6"/>
<path id="Vector_124" d="M55.6274 56.3808L55.8835 51.9951L60.4089 51.9675L60.4357 56.3514L55.6274 56.3808ZM56.5949 52.6979L56.4013 55.7397L59.9368 55.7181L59.9187 52.7483L56.5949 52.6979Z" fill="#944C34"/>
</g>
<g id="Group_86">
<path id="Vector_125" d="M64.3936 56.0444L64.1586 52.2981L60.1989 52.3223L60.2214 55.9992L64.3936 56.0444Z" fill="#EFD4C6"/>
<path id="Vector_126" d="M59.87 56.3549L59.8432 51.9709L64.3686 51.9432L64.6782 56.3255L59.87 56.3549ZM60.5546 52.6737L60.5728 55.6435L64.1082 55.6218L63.8775 52.5826L60.5546 52.6737Z" fill="#944C34"/>
</g>
</g>
</g>
</g>
<g id="fence1">
<g id="Group_87">
<path id="Vector_127" d="M42.6 105.5H29.5V107.7H42.6V105.5Z" fill="#7D402C"/>
<g id="Group_88">
<path id="Vector_128" d="M31.2 111.5H33.3L33.5 107.9H31L31.2 111.5Z" fill="#7D402C"/>
<path id="Vector_129" d="M39 111.5H41.1L41.3 107.9H38.8L39 111.5Z" fill="#7D402C"/>
<path id="Vector_130" d="M31 107.7V107.9H33.5V107.7H31Z" fill="#5E3021"/>
<path id="Vector_131" d="M38.8 107.7V107.9H41.3V107.7H38.8Z" fill="#5E3021"/>
</g>
<g id="Group_89">
<path id="Vector_132" d="M31 107.7H33.5L33.6 105.5H30.9L31 107.7Z" fill="#7D402C"/>
<path id="Vector_133" d="M33.8 101.8L32.2 99.4L30.7 101.8L30.8 105H33.6L33.8 101.8Z" fill="#7D402C"/>
<path id="Vector_134" d="M34.8 107.7H37.3L37.4 105.5H34.7L34.8 107.7Z" fill="#7D402C"/>
<path id="Vector_135" d="M38.8 107.7H41.3L41.4 105.5H38.7L38.8 107.7Z" fill="#7D402C"/>
<path id="Vector_136" d="M41.6 101.8L40 99.4L38.5 101.8L38.6 105H41.4L41.6 101.8Z" fill="#7D402C"/>
<path id="Vector_137" d="M30.8 105L30.9 105.5H33.6V105H30.8Z" fill="#5E3021"/>
<path id="Vector_138" d="M38.6 105L38.7 105.5H41.4V105H38.6Z" fill="#5E3021"/>
</g>
<path id="Vector_139" d="M36.1 106.9C36.2105 106.9 36.3 106.81 36.3 106.7C36.3 106.589 36.2105 106.5 36.1 106.5C35.9896 106.5 35.9 106.589 35.9 106.7C35.9 106.81 35.9896 106.9 36.1 106.9Z" fill="#5E3021"/>
<path id="Vector_140" d="M40.1 106.9C40.2105 106.9 40.3 106.81 40.3 106.7C40.3 106.589 40.2105 106.5 40.1 106.5C39.9896 106.5 39.9 106.589 39.9 106.7C39.9 106.81 39.9896 106.9 40.1 106.9Z" fill="#5E3021"/>
<path id="Vector_141" d="M32.2 106.9C32.3105 106.9 32.4 106.81 32.4 106.7C32.4 106.589 32.3105 106.5 32.2 106.5C32.0895 106.5 32 106.589 32 106.7C32 106.81 32.0895 106.9 32.2 106.9Z" fill="#5E3021"/>
</g>
<g id="Group_90">
<path id="Vector_142" d="M51.9 105.5H41.6V107.7H51.9V105.5Z" fill="#7D402C"/>
<g id="Group_91">
<path id="Vector_143" d="M47.1 111.5H49.2L49.4 107.9H46.9L47.1 111.5Z" fill="#7D402C"/>
<path id="Vector_144" d="M46.9 107.6V107.9H49.4V107.6H46.9Z" fill="#5E3021"/>
</g>
<g id="Group_92">
<path id="Vector_145" d="M43.1 107.6H45.6L45.7 105.5H43L43.1 107.6Z" fill="#7D402C"/>
<path id="Vector_146" d="M49.7 101.8L48.2 99.4L46.6 101.8L46.8 105H49.6L49.7 101.8Z" fill="#7D402C"/>
<path id="Vector_147" d="M46.9 107.6H49.4L49.5 105.5H46.8L46.9 107.6Z" fill="#7D402C"/>
<path id="Vector_148" d="M46.8 105V105.5H49.5L49.6 105H46.8Z" fill="#5E3021"/>
</g>
<path id="Vector_149" d="M48.2 106.8C48.3105 106.8 48.4 106.71 48.4 106.6C48.4 106.49 48.3105 106.4 48.2 106.4C48.0895 106.4 48 106.49 48 106.6C48 106.71 48.0895 106.8 48.2 106.8Z" fill="#5E3021"/>
<path id="Vector_150" d="M44.3 106.8C44.4104 106.8 44.5 106.71 44.5 106.6C44.5 106.49 44.4104 106.4 44.3 106.4C44.1895 106.4 44.1 106.49 44.1 106.6C44.1 106.71 44.1895 106.8 44.3 106.8Z" fill="#5E3021"/>
</g>
</g>
<g id="fence2">
<g id="Group_93">
<path id="Vector_151" d="M92.5 105.5H79.4V107.7H92.5V105.5Z" fill="#7D402C"/>
<g id="Group_94">
<path id="Vector_152" d="M90.8 111.5H88.7L88.5 107.9H91L90.8 111.5Z" fill="#7D402C"/>
<path id="Vector_153" d="M83 111.5H80.9L80.7 107.9H83.2L83 111.5Z" fill="#7D402C"/>
<path id="Vector_154" d="M91 107.7V107.9H88.5V107.7H91Z" fill="#5E3021"/>
<path id="Vector_155" d="M83.2 107.7V107.9H80.7V107.7H83.2Z" fill="#5E3021"/>
</g>
<g id="Group_95">
<path id="Vector_156" d="M91 107.7H88.5L88.4 105.5H91.1L91 107.7Z" fill="#7D402C"/>
<path id="Vector_157" d="M88.2 101.8L89.8 99.4L91.4 101.8L91.2 105H88.4L88.2 101.8Z" fill="#7D402C"/>
<path id="Vector_158" d="M87.2 107.7H84.7L84.6 105.5H87.3L87.2 107.7Z" fill="#7D402C"/>
<path id="Vector_159" d="M83.2 107.7H80.7L80.6 105.5H83.3L83.2 107.7Z" fill="#7D402C"/>
<path id="Vector_160" d="M80.4 101.8L82 99.4L83.5 101.8L83.4 105H80.6L80.4 101.8Z" fill="#7D402C"/>
<path id="Vector_161" d="M91.2 105L91.1 105.5H88.4V105H91.2Z" fill="#5E3021"/>
<path id="Vector_162" d="M83.4 105L83.3 105.5H80.6V105H83.4Z" fill="#5E3021"/>
</g>
<path id="Vector_163" d="M85.9 106.9C86.0105 106.9 86.1 106.81 86.1 106.7C86.1 106.589 86.0105 106.5 85.9 106.5C85.7896 106.5 85.7 106.589 85.7 106.7C85.7 106.81 85.7896 106.9 85.9 106.9Z" fill="#5E3021"/>
<path id="Vector_164" d="M81.9 106.9C82.0105 106.9 82.1 106.81 82.1 106.7C82.1 106.589 82.0105 106.5 81.9 106.5C81.7896 106.5 81.7 106.589 81.7 106.7C81.7 106.81 81.7896 106.9 81.9 106.9Z" fill="#5E3021"/>
<path id="Vector_165" d="M89.8 106.9C89.9105 106.9 90 106.81 90 106.7C90 106.589 89.9105 106.5 89.8 106.5C89.6896 106.5 89.6 106.589 89.6 106.7C89.6 106.81 89.6896 106.9 89.8 106.9Z" fill="#5E3021"/>
</g>
<g id="Group_96">
<path id="Vector_166" d="M80.3 105.5H70V107.7H80.3V105.5Z" fill="#7D402C"/>
<g id="Group_97">
<path id="Vector_167" d="M74.9 111.5H72.8L72.6 107.9H75.1L74.9 111.5Z" fill="#7D402C"/>
<path id="Vector_168" d="M75.1 107.6V107.9H72.6V107.6H75.1Z" fill="#5E3021"/>
</g>
<g id="Group_98">
<path id="Vector_169" d="M78.9 107.6H76.4L76.3 105.5H79.1L78.9 107.6Z" fill="#7D402C"/>
<path id="Vector_170" d="M72.3 101.8L73.9 99.4L75.4 101.8L75.3 105H72.4L72.3 101.8Z" fill="#7D402C"/>
<path id="Vector_171" d="M75.1 107.6H72.6L72.5 105.5H75.2L75.1 107.6Z" fill="#7D402C"/>
<path id="Vector_172" d="M75.3 105L75.2 105.5H72.5L72.4 105H75.3Z" fill="#5E3021"/>
</g>
<path id="Vector_173" d="M73.9 106.8C74.0105 106.8 74.1 106.71 74.1 106.6C74.1 106.49 74.0105 106.4 73.9 106.4C73.7896 106.4 73.7 106.49 73.7 106.6C73.7 106.71 73.7896 106.8 73.9 106.8Z" fill="#5E3021"/>
<path id="Vector_174" d="M77.7 106.8C77.8105 106.8 77.9 106.71 77.9 106.6C77.9 106.49 77.8105 106.4 77.7 106.4C77.5895 106.4 77.5 106.49 77.5 106.6C77.5 106.71 77.5895 106.8 77.7 106.8Z" fill="#5E3021"/>
</g>
</g>
<g id="sunflower2">
<path id="Vector_175" d="M16.5 95.4H15.5V110.9H16.5V95.4Z" fill="#8BB32F"/>
<g id="Group_99">
<g id="Group_100">
<path id="Vector_176" d="M17.6 86.6C17.6 86.6 17.5 85.5 18.3 84.1C19.1 82.7 20.6 81.2 20.6 81.2L18.1 86.7999L17.6 86.6Z" fill="#F6CF31"/>
<path id="Vector_177" d="M18.6 87.1C18.6 87.1 19.5 86.3999 20 84.8999C20.5 83.3999 20.6 81.2 20.6 81.2L18.1 86.7999L18.6 87.1Z" fill="#FAE739"/>
</g>
<g id="Group_101">
<path id="Vector_178" d="M16.1 86.2999C16.1 86.2999 15.6 85.3 16 83.7C16.3 82.2 17.3 80.2 17.3 80.2L16.7 86.2999H16.1Z" fill="#F6CF31"/>
<path id="Vector_179" d="M17.2 86.3999C17.2 86.3999 17.9 85.4999 17.9 83.8999C17.9 82.2999 17.3 80.2 17.3 80.2L16.7 86.2999L17.2 86.3999Z" fill="#FAE739"/>
</g>
<g id="Group_102">
<path id="Vector_180" d="M14.6 86.5C14.6 86.5 13.8 85.7 13.7 84.1C13.5 82.5 13.9 80.4 13.9 80.4L15.2 86.4L14.6 86.5Z" fill="#F6CF31"/>
<path id="Vector_181" d="M15.7001 86.3C15.7001 86.3 16.1 85.2 15.5 83.7C15 82.2 13.8 80.4 13.8 80.4L15.1 86.4L15.7001 86.3Z" fill="#FAE739"/>
</g>
<g id="Group_103">
<path id="Vector_182" d="M13.2 87.0999C13.2 87.0999 12.2 86.4999 11.6 85.0999C11 83.5999 10.6 81.4999 10.6 81.4999L13.7 86.7999L13.2 87.0999Z" fill="#F6CF31"/>
<path id="Vector_183" d="M14.1 86.5999C14.1 86.5999 14.1 85.3999 13.2 84.1999C12.2 82.8999 10.6 81.5999 10.6 81.5999L13.7 86.8999L14.1 86.5999Z" fill="#FAE739"/>
</g>
<g id="Group_104">
<path id="Vector_184" d="M12 88.2C12 88.2 10.9 87.9999 9.80005 86.7999C8.70005 85.5999 7.80005 83.7 7.80005 83.7L12.4 87.7999L12 88.2Z" fill="#F6CF31"/>
<path id="Vector_185" d="M12.8 87.2999C12.8 87.2999 12.4 86.1999 11.2 85.2999C9.90003 84.3999 7.90002 83.5999 7.90002 83.5999L12.5 87.6999L12.8 87.2999Z" fill="#FAE739"/>
</g>
<g id="Group_105">
<path id="Vector_186" d="M11.3 89.4999C11.3 89.4999 10.2 89.5999 8.80003 88.7999C7.40003 87.9999 5.90002 86.4999 5.90002 86.4999L11.5 88.9999L11.3 89.4999Z" fill="#F6CF31"/>
<path id="Vector_187" d="M11.7001 88.4999C11.7001 88.4999 11 87.5999 9.50005 87.0999C8.00005 86.5999 5.80005 86.5999 5.80005 86.5999L11.4 89.0999L11.7001 88.4999Z" fill="#FAE739"/>
</g>
<g id="Group_106">
<path id="Vector_188" d="M11 91C11 91 10 91.5 8.40002 91.1C6.90002 90.8 4.90002 89.8 4.90002 89.8L11 90.4V91Z" fill="#F6CF31"/>
<path id="Vector_189" d="M11.1 89.8999C11.1 89.8999 10.2 89.2 8.60002 89.2C7.00002 89.2 4.90002 89.7999 4.90002 89.7999L11 90.3999L11.1 89.8999Z" fill="#FAE739"/>
</g>
<g id="Group_107">
<path id="Vector_190" d="M11.1 92.5C11.1 92.5 10.3 93.3 8.7 93.4C7.1 93.6 5 93.2 5 93.2L11 91.9L11.1 92.5Z" fill="#F6CF31"/>
<path id="Vector_191" d="M10.9 91.4C10.9 91.4 9.8 91 8.3 91.6C6.8 92.1 5 93.3 5 93.3L11 92L10.9 91.4Z" fill="#FAE739"/>
</g>
<g id="Group_108">
<path id="Vector_192" d="M11.8 93.8999C11.8 93.8999 11.2 94.8999 9.80001 95.4999C8.30001 96.0999 6.20001 96.4999 6.20001 96.4999L11.5 93.3999L11.8 93.8999Z" fill="#F6CF31"/>
<path id="Vector_193" d="M11.2 92.9999C11.2 92.9999 10 92.9999 8.80001 93.8999C7.50001 94.8999 6.20001 96.4999 6.20001 96.4999L11.5 93.3999L11.2 92.9999Z" fill="#FAE739"/>
</g>
<g id="Group_109">
<path id="Vector_194" d="M12.8 95.1C12.8 95.1 12.6 96.1999 11.4 97.2999C10.2 98.3999 8.30005 99.2999 8.30005 99.2999L12.4 94.7L12.8 95.1Z" fill="#F6CF31"/>
<path id="Vector_195" d="M12 94.3C12 94.3 10.9 94.7 10 95.9C9.10005 97.2 8.30005 99.2 8.30005 99.2L12.4 94.6L12 94.3Z" fill="#FAE739"/>
</g>
<g id="Group_110">
<path id="Vector_196" d="M14.2001 95.8C14.2001 95.8 14.3001 96.9 13.5001 98.3C12.7001 99.7 11.2001 101.2 11.2001 101.2L13.7001 95.6L14.2001 95.8Z" fill="#F6CF31"/>
<path id="Vector_197" d="M13.1 95.4C13.1 95.4 12.2 96.1 11.7 97.6C11.2 99.1 11.1 101.3 11.1 101.3L13.6 95.7L13.1 95.4Z" fill="#FAE739"/>
</g>
<g id="Group_111">
<path id="Vector_198" d="M15.7001 96.0999C15.7001 96.0999 16.2001 97.0999 15.8001 98.6999C15.5001 100.2 14.5001 102.2 14.5001 102.2L15.1001 96.0999H15.7001Z" fill="#F6CF31"/>
<path id="Vector_199" d="M14.5 95.9999C14.5 95.9999 13.8 96.8999 13.8 98.4999C13.8 100.1 14.4 102.2 14.4 102.2L15 96.0999L14.5 95.9999Z" fill="#FAE739"/>
</g>
<g id="Group_112">
<path id="Vector_200" d="M17.2 95.9999C17.2 95.9999 18 96.7999 18.1 98.3999C18.3 99.9999 17.9 102.1 17.9 102.1L16.6 96.0999L17.2 95.9999Z" fill="#F6CF31"/>
<path id="Vector_201" d="M16.1 96.1999C16.1 96.1999 15.7 97.2999 16.3 98.7999C16.8 100.3 18 102.1 18 102.1L16.7 96.0999L16.1 96.1999Z" fill="#FAE739"/>
</g>
<g id="Group_113">
<path id="Vector_202" d="M18.6 95.3C18.6 95.3 19.6 95.9 20.2 97.3C20.8 98.8 21.2 100.9 21.2 100.9L18.1 95.6L18.6 95.3Z" fill="#F6CF31"/>
<path id="Vector_203" d="M17.6 95.9C17.6 95.9 17.6 97.1 18.5 98.3C19.5 99.6 21.1 100.9 21.1 100.9L18 95.6L17.6 95.9Z" fill="#FAE739"/>
</g>
<g id="Group_114">
<path id="Vector_204" d="M19.7 94.3C19.7 94.3 20.8 94.5 21.9 95.7C23 96.9 23.9 98.8 23.9 98.8L19.3 94.7L19.7 94.3Z" fill="#F6CF31"/>
<path id="Vector_205" d="M19 95.1C19 95.1 19.4 96.2 20.6 97.1C21.9 98 23.9 98.7999 23.9 98.7999L19.3 94.7L19 95.1Z" fill="#FAE739"/>
</g>
<g id="Group_115">
<path id="Vector_206" d="M20.5 92.8999C20.5 92.8999 21.6 92.7999 23 93.5999C24.4 94.3999 25.9 95.8999 25.9 95.8999L20.3 93.3999L20.5 92.8999Z" fill="#F6CF31"/>
<path id="Vector_207" d="M20 93.9999C20 93.9999 20.7 94.8999 22.2 95.3999C23.7 95.8999 25.9 95.8999 25.9 95.8999L20.3 93.3999L20 93.9999Z" fill="#FAE739"/>
</g>
<g id="Group_116">
<path id="Vector_208" d="M20.8 91.3999C20.8 91.3999 21.8 90.8999 23.4 91.2999C24.9 91.5999 26.9 92.5999 26.9 92.5999L20.8 91.9999V91.3999Z" fill="#F6CF31"/>
<path id="Vector_209" d="M20.7 92.5999C20.7 92.5999 21.6 93.2999 23.2 93.2999C24.8 93.2999 26.9 92.6999 26.9 92.6999L20.8 92.0999L20.7 92.5999Z" fill="#FAE739"/>
</g>
<g id="Group_117">
<path id="Vector_210" d="M20.6 89.8999C20.6 89.8999 21.4 89.0999 23 88.9999C24.6 88.7999 26.7 89.1999 26.7 89.1999L20.7 90.4999L20.6 89.8999Z" fill="#F6CF31"/>
<path id="Vector_211" d="M20.8001 90.9999C20.8001 90.9999 21.9001 91.3999 23.4001 90.7999C24.9001 90.2999 26.7001 89.0999 26.7001 89.0999L20.7001 90.3999L20.8001 90.9999Z" fill="#FAE739"/>
</g>
<g id="Group_118">
<path id="Vector_212" d="M20 88.5C20 88.5 20.6 87.5 22 86.9C23.5 86.3 25.6 85.9 25.6 85.9L20.3 89L20 88.5Z" fill="#F6CF31"/>
<path id="Vector_213" d="M20.5 89.5C20.5 89.5 21.7 89.5 22.9 88.6C24.2 87.6 25.5 86 25.5 86L20.2 89.1L20.5 89.5Z" fill="#FAE739"/>
</g>
<g id="Group_119">
<path id="Vector_214" d="M18.9 87.3999C18.9 87.3999 19.1 86.3 20.3 85.2C21.5 84.1 23.4 83.2 23.4 83.2L19.3 87.7999L18.9 87.3999Z" fill="#F6CF31"/>
<path id="Vector_215" d="M19.8 88.1C19.8 88.1 20.9 87.6999 21.8 86.4999C22.7 85.1999 23.5 83.2 23.5 83.2L19.4 87.7999L19.8 88.1Z" fill="#FAE739"/>
</g>
<path id="Vector_216" d="M18 96.2999L17.3 96.4L16.6 96.6999L15.8 96.4999L15.1 96.6L14.4 96.2999L13.7 96.2L13.1 95.7L12.4 95.3999L12 94.7L11.4 94.2L11.2 93.4999L10.8 92.7999V92.1L10.6 91.3999L10.9 90.6V89.8999L11.3 89.2L11.5 88.4999L12.1 87.9999L12.5 87.3999L13.2 87.1L13.8 86.6L14.5 86.4999L15.2 86.2L16 86.2999L16.7 86.2L17.4 86.4999L18.2 86.7L18.7 87.2L19.4 87.4999L19.8 88.1L20.4 88.6L20.6 89.3999L21 89.9999V90.7999L21.2 91.4999L21 92.2L20.9 92.9999L20.5 93.6L20.3 94.2999L19.7 94.7999L19.3 95.4999L18.6 95.7999L18 96.2999Z" fill="black"/>
<path id="Vector_217" d="M17.4 94.8H16.9L16.4 95H15.9H15.3L14.9 94.8L14.3 94.7L14 94.4L13.5 94.2L13.2001 93.7L12.8 93.4L12.7001 92.9L12.4 92.4V91.9L12.3 91.4L12.4 90.9V90.3L12.7001 89.9L12.9 89.4L13.3 89.1L13.6 88.6L14 88.4L14.4 88.1L15 88L15.4 87.8L16 87.9L16.5 87.8L17 88L17.5 88.1L17.9 88.5L18.3 88.7L18.6 89.2L19 89.5L19.2001 90L19.4 90.5V91L19.6 91.5L19.4 92V92.5L19.1 92.9L19 93.4L18.6 93.8L18.3 94.2L17.8 94.4L17.4 94.8Z" fill="#5E3021"/>
</g>
<g id="Group_120">
<g id="Group_121">
<path id="Vector_218" d="M11.8 104.6C9.70003 104.1 8.90002 102.3 8.90002 102.3C9.50002 103 11.8 102.5 13.7 103.1C15.6 103.7 14.9 106.7 14.9 106.7C14.9 106.7 13.9 105.1 11.8 104.6Z" fill="#A2C259"/>
<path id="Vector_219" d="M9 102.3C9 102.3 9.8 104.1 11.9 104.6C14 105.1 15.1 106.7 15.1 106.7C14.4 107.2 13.3 108.1 11.6 107.2C9.8 106.4 9 102.3 9 102.3Z" fill="#8BB32F"/>
</g>
<path id="Vector_220" d="M14.5 106.8C14.5 106.8 15.6 107.7 15.7 108.6V107.5C15.7 107.5 15 106.7 14.6 106.4C14.3 106 14.5 106.8 14.5 106.8Z" fill="#8BB32F"/>
</g>
<g id="Group_122">
<g id="Group_123">
<path id="Vector_221" d="M20.1 104.6C22.2 104.1 23 102.3 23 102.3C22.4 103 20.1 102.5 18.2 103.1C16.3 103.7 17 106.7 17 106.7C17 106.7 18 105.1 20.1 104.6Z" fill="#A2C259"/>
<path id="Vector_222" d="M22.9 102.3C22.9 102.3 22.1 104.1 20 104.6C17.9 105.1 16.8 106.7 16.8 106.7C17.5 107.2 18.6 108.1 20.3 107.2C22.1 106.4 22.9 102.3 22.9 102.3Z" fill="#8BB32F"/>
</g>
<path id="Vector_223" d="M17.4 106.8C17.4 106.8 16.3 107.7 16.2 108.6V107.5C16.2 107.5 16.9 106.7 17.3 106.4C17.6 106 17.4 106.8 17.4 106.8Z" fill="#8BB32F"/>
</g>
</g>
<g id="sunflower1">
<path id="Vector_224" d="M104.1 95.4H103.1V110.9H104.1V95.4Z" fill="#8BB32F"/>
<g id="Group_124">
<g id="Group_125">
<path id="Vector_225" d="M102 86.6C102 86.6 102.1 85.5 101.3 84.1C100.5 82.7 99 81.2 99 81.2L101.5 86.7999L102 86.6Z" fill="#F6CF31"/>
<path id="Vector_226" d="M100.9 87.1C100.9 87.1 100 86.3999 99.5 84.8999C99 83.3999 99 81.2 99 81.2L101.5 86.7999L100.9 87.1Z" fill="#FAE739"/>
</g>
<g id="Group_126">
<path id="Vector_227" d="M103.5 86.2999C103.5 86.2999 104 85.3 103.6 83.7C103.3 82.2 102.3 80.2 102.3 80.2L102.9 86.2999H103.5Z" fill="#F6CF31"/>
<path id="Vector_228" d="M102.4 86.3999C102.4 86.3999 101.7 85.4999 101.7 83.8999C101.7 82.2999 102.3 80.2 102.3 80.2L102.9 86.2999L102.4 86.3999Z" fill="#FAE739"/>
</g>
<g id="Group_127">
<path id="Vector_229" d="M105 86.5C105 86.5 105.8 85.7 105.9 84.1C106.1 82.5 105.7 80.4 105.7 80.4L104.4 86.4L105 86.5Z" fill="#F6CF31"/>
<path id="Vector_230" d="M103.9 86.3C103.9 86.3 103.5 85.2 104.1 83.7C104.6 82.2 105.8 80.4 105.8 80.4L104.5 86.4L103.9 86.3Z" fill="#FAE739"/>
</g>
<g id="Group_128">
<path id="Vector_231" d="M106.4 87.0999C106.4 87.0999 107.4 86.4999 108 85.0999C108.6 83.5999 109 81.4999 109 81.4999L105.9 86.7999L106.4 87.0999Z" fill="#F6CF31"/>
<path id="Vector_232" d="M105.4 86.5999C105.4 86.5999 105.4 85.3999 106.3 84.1999C107.3 82.8999 108.9 81.5999 108.9 81.5999L105.8 86.8999L105.4 86.5999Z" fill="#FAE739"/>
</g>
<g id="Group_129">
<path id="Vector_233" d="M107.6 88.2C107.6 88.2 108.7 87.9999 109.8 86.7999C110.9 85.5999 111.8 83.7 111.8 83.7L107.2 87.7999L107.6 88.2Z" fill="#F6CF31"/>
<path id="Vector_234" d="M106.8 87.2999C106.8 87.2999 107.2 86.1999 108.5 85.2999C109.8 84.3999 111.8 83.5999 111.8 83.5999L107.2 87.6999L106.8 87.2999Z" fill="#FAE739"/>
</g>
<g id="Group_130">
<path id="Vector_235" d="M108.3 89.4999C108.3 89.4999 109.4 89.5999 110.8 88.7999C112.2 87.9999 113.7 86.4999 113.7 86.4999L108.1 88.9999L108.3 89.4999Z" fill="#F6CF31"/>
<path id="Vector_236" d="M107.9 88.4999C107.9 88.4999 108.6 87.5999 110.1 87.0999C111.6 86.5999 113.8 86.5999 113.8 86.5999L108.2 89.0999L107.9 88.4999Z" fill="#FAE739"/>
</g>
<g id="Group_131">
<path id="Vector_237" d="M108.6 91C108.6 91 109.6 91.5 111.2 91.1C112.7 90.8 114.7 89.8 114.7 89.8L108.6 90.4V91Z" fill="#F6CF31"/>
<path id="Vector_238" d="M108.5 89.8999C108.5 89.8999 109.4 89.2 111 89.2C112.6 89.2 114.7 89.7999 114.7 89.7999L108.6 90.3999L108.5 89.8999Z" fill="#FAE739"/>
</g>
<g id="Group_132">
<path id="Vector_239" d="M108.4 92.5C108.4 92.5 109.2 93.3 110.8 93.4C112.4 93.6 114.5 93.2 114.5 93.2L108.5 91.9L108.4 92.5Z" fill="#F6CF31"/>
<path id="Vector_240" d="M108.7 91.4C108.7 91.4 109.8 91 111.3 91.6C112.8 92.1 114.6 93.3 114.6 93.3L108.6 92L108.7 91.4Z" fill="#FAE739"/>
</g>
<g id="Group_133">
<path id="Vector_241" d="M107.8 93.8999C107.8 93.8999 108.4 94.8999 109.8 95.4999C111.3 96.0999 113.4 96.4999 113.4 96.4999L108.1 93.3999L107.8 93.8999Z" fill="#F6CF31"/>
<path id="Vector_242" d="M108.4 92.9999C108.4 92.9999 109.6 92.9999 110.8 93.8999C112.1 94.8999 113.4 96.4999 113.4 96.4999L108.1 93.3999L108.4 92.9999Z" fill="#FAE739"/>
</g>
<g id="Group_134">
<path id="Vector_243" d="M106.8 95.1C106.8 95.1 107 96.1999 108.2 97.2999C109.4 98.3999 111.3 99.2999 111.3 99.2999L107.2 94.7L106.8 95.1Z" fill="#F6CF31"/>
<path id="Vector_244" d="M107.6 94.3C107.6 94.3 108.7 94.7 109.6 95.9C110.5 97.2 111.3 99.2 111.3 99.2L107.2 94.6L107.6 94.3Z" fill="#FAE739"/>
</g>
<g id="Group_135">
<path id="Vector_245" d="M105.4 95.8C105.4 95.8 105.3 96.9 106.1 98.3C106.9 99.7 108.4 101.2 108.4 101.2L105.9 95.6L105.4 95.8Z" fill="#F6CF31"/>
<path id="Vector_246" d="M106.5 95.4C106.5 95.4 107.4 96.1 107.9 97.6C108.4 99.1 108.5 101.3 108.5 101.3L106 95.7L106.5 95.4Z" fill="#FAE739"/>
</g>
<g id="Group_136">
<path id="Vector_247" d="M103.9 96.0999C103.9 96.0999 103.4 97.0999 103.8 98.6999C104.1 100.2 105.1 102.2 105.1 102.2L104.5 96.0999H103.9Z" fill="#F6CF31"/>
<path id="Vector_248" d="M105 95.9999C105 95.9999 105.7 96.8999 105.7 98.4999C105.7 100.1 105.1 102.2 105.1 102.2L104.5 96.0999L105 95.9999Z" fill="#FAE739"/>
</g>
<g id="Group_137">
<path id="Vector_249" d="M102.4 95.9999C102.4 95.9999 101.6 96.7999 101.5 98.3999C101.3 99.9999 101.7 102.1 101.7 102.1L103 96.0999L102.4 95.9999Z" fill="#F6CF31"/>
<path id="Vector_250" d="M103.5 96.1999C103.5 96.1999 103.9 97.2999 103.3 98.7999C102.8 100.3 101.6 102.1 101.6 102.1L102.9 96.0999L103.5 96.1999Z" fill="#FAE739"/>
</g>
<g id="Group_138">
<path id="Vector_251" d="M101 95.3C101 95.3 100 95.9 99.4 97.3C98.8 98.8 98.4 100.9 98.4 100.9L101.5 95.6L101 95.3Z" fill="#F6CF31"/>
<path id="Vector_252" d="M102 95.9C102 95.9 102 97.1 101.1 98.3C100.1 99.6 98.5 100.9 98.5 100.9L101.6 95.6L102 95.9Z" fill="#FAE739"/>
</g>
<g id="Group_139">
<path id="Vector_253" d="M99.9 94.3C99.9 94.3 98.8 94.5 97.7 95.7C96.6 96.9 95.7 98.8 95.7 98.8L100.3 94.7L99.9 94.3Z" fill="#F6CF31"/>
<path id="Vector_254" d="M100.6 95.1C100.6 95.1 100.2 96.2 99 97.1C97.7 98 95.7 98.7999 95.7 98.7999L100.3 94.7L100.6 95.1Z" fill="#FAE739"/>
</g>
<g id="Group_140">
<path id="Vector_255" d="M99.1 92.8999C99.1 92.8999 98 92.7999 96.6 93.5999C95.2 94.3999 93.7 95.8999 93.7 95.8999L99.3 93.3999L99.1 92.8999Z" fill="#F6CF31"/>
<path id="Vector_256" d="M99.6 93.9999C99.6 93.9999 98.9 94.8999 97.4 95.3999C95.9 95.8999 93.7 95.8999 93.7 95.8999L99.3 93.3999L99.6 93.9999Z" fill="#FAE739"/>
</g>
<g id="Group_141">
<path id="Vector_257" d="M98.8 91.3999C98.8 91.3999 97.8 90.8999 96.2 91.2999C94.7 91.5999 92.7 92.5999 92.7 92.5999L98.8 91.9999V91.3999Z" fill="#F6CF31"/>
<path id="Vector_258" d="M98.9 92.5999C98.9 92.5999 98 93.2999 96.4 93.2999C94.8 93.2999 92.7 92.6999 92.7 92.6999L98.8 92.0999L98.9 92.5999Z" fill="#FAE739"/>
</g>
<g id="Group_142">
<path id="Vector_259" d="M99 89.8999C99 89.8999 98.2 89.0999 96.6 88.9999C95 88.7999 92.9 89.1999 92.9 89.1999L98.9 90.4999L99 89.8999Z" fill="#F6CF31"/>
<path id="Vector_260" d="M98.7 90.9999C98.7 90.9999 97.6 91.3999 96.1 90.7999C94.6 90.2999 92.8 89.0999 92.8 89.0999L98.8 90.3999L98.7 90.9999Z" fill="#FAE739"/>
</g>
<g id="Group_143">
<path id="Vector_261" d="M99.6 88.5C99.6 88.5 99 87.5 97.6 86.9C96.1 86.3 94 85.9 94 85.9L99.3 89L99.6 88.5Z" fill="#F6CF31"/>
<path id="Vector_262" d="M99 89.5C99 89.5 97.8 89.5 96.6 88.6C95.3 87.6 94 86 94 86L99.3 89.1L99 89.5Z" fill="#FAE739"/>
</g>
<g id="Group_144">
<path id="Vector_263" d="M100.6 87.3999C100.6 87.3999 100.4 86.3 99.2 85.2C98 84.1 96.1 83.2 96.1 83.2L100.2 87.7999L100.6 87.3999Z" fill="#F6CF31"/>
<path id="Vector_264" d="M99.8 88.1C99.8 88.1 98.7 87.6999 97.8 86.4999C96.9 85.1999 96.1 83.2 96.1 83.2L100.2 87.7999L99.8 88.1Z" fill="#FAE739"/>
</g>
<path id="Vector_265" d="M101.5 96.2999L102.3 96.4L103 96.6999L103.7 96.4999L104.5 96.6L105.2 96.2999L105.9 96.2L106.5 95.7L107.2 95.3999L107.6 94.7L108.1 94.2L108.3 93.4999L108.7 92.7999V92.1L108.9 91.3999L108.7 90.6V89.8999L108.3 89.2L108.1 88.4999L107.5 87.9999L107.1 87.3999L106.4 87.1L105.8 86.6L105 86.4999L104.3 86.2L103.6 86.2999L102.8 86.2L102.2 86.4999L101.4 86.7L100.8 87.2L100.2 87.4999L99.8 88.1L99.2 88.6L99 89.3999L98.6 89.9999V90.7999L98.4 91.4999L98.6 92.2V92.9999L99 93.6L99.3 94.2999L99.8 94.7999L100.3 95.4999L101 95.7999L101.5 96.2999Z" fill="black"/>
<path id="Vector_266" d="M102.2 94.8H102.7L103.2 95H103.7H104.2L104.7 94.8L105.2 94.7L105.6 94.4L106.1 94.2L106.4 93.7L106.8 93.4L106.9 92.9L107.2 92.4V91.9L107.3 91.4L107.2 90.9L107.1 90.3L106.9 89.9L106.7 89.4L106.3 89.1L106 88.6L105.5 88.4L105.1 88.1L104.6 88L104.1 87.8L103.6 87.9L103.1 87.8L102.6 88L102.1 88.1L101.7 88.5L101.2 88.7L101 89.2L100.6 89.5L100.4 90L100.1 90.5L100.2 91L100 91.5L100.2 92V92.5L100.5 92.9L100.6 93.4L101 93.8L101.3 94.2L101.8 94.4L102.2 94.8Z" fill="#5E3021"/>
</g>
<g id="Group_145">
<g id="Group_146">
<path id="Vector_267" d="M107.7 104.6C109.8 104.1 110.6 102.3 110.6 102.3C110 103 107.7 102.5 105.8 103.1C103.9 103.7 104.6 106.7 104.6 106.7C104.6 106.7 105.7 105.1 107.7 104.6Z" fill="#A2C259"/>
<path id="Vector_268" d="M110.6 102.3C110.6 102.3 109.8 104.1 107.7 104.6C105.6 105.1 104.5 106.7 104.5 106.7C105.2 107.2 106.3 108.1 108 107.2C109.8 106.4 110.6 102.3 110.6 102.3Z" fill="#8BB32F"/>
</g>
<path id="Vector_269" d="M105.1 106.8C105.1 106.8 104 107.7 103.9 108.6V107.5C103.9 107.5 104.6 106.7 105 106.4C105.3 106 105.1 106.8 105.1 106.8Z" fill="#8BB32F"/>
</g>
<g id="Group_147">
<g id="Group_148">
<path id="Vector_270" d="M99.5 104.6C97.4 104.1 96.6 102.3 96.6 102.3C97.2 103 99.5 102.5 101.4 103.1C103.3 103.7 102.6 106.7 102.6 106.7C102.6 106.7 101.5 105.1 99.5 104.6Z" fill="#A2C259"/>
<path id="Vector_271" d="M96.6 102.3C96.6 102.3 97.4 104.1 99.5 104.6C101.6 105.1 102.7 106.7 102.7 106.7C102 107.2 100.9 108.1 99.2 107.2C97.5 106.4 96.6 102.3 96.6 102.3Z" fill="#8BB32F"/>
</g>
<path id="Vector_272" d="M102.1 106.8C102.1 106.8 103.2 107.7 103.3 108.6V107.5C103.3 107.5 102.6 106.7 102.2 106.4C101.9 106 102.1 106.8 102.1 106.8Z" fill="#8BB32F"/>
</g>
</g>
</g>
</svg>
